<mxfile host="drawio-plugin" modified="2021-09-21T09:57:18.356Z" agent="5.0 (X11; Linux x86_64) AppleWebKit/537.36 (KHTML, like Gecko) Chrome/89.0.4389.114 Safari/537.36" version="14.7.4" etag="K-zAbT_r7b0RkCgN9xwd" type="embed" pages="7"><diagram id="3233c1b6-2c7b-88a1-73f8-70aa1d5a9877" name="002 - workspace"><mxGraphModel dx="900" dy="727" grid="1" gridSize="10" guides="1" tooltips="1" connect="1" arrows="1" fold="1" page="1" pageScale="1" pageWidth="1100" pageHeight="850" background="#ffffff" math="0" shadow="0"><root><mxCell id="0"/><mxCell id="1" parent="0"/><mxCell id="2" value="" style="rounded=0;whiteSpace=wrap;html=1;shadow=0;labelBackgroundColor=none;strokeColor=#080808;strokeWidth=2;fillColor=#ffffff;fontSize=22;fontColor=#000000;align=center;" parent="1" vertex="1"><mxGeometry x="390" y="170" width="180" height="310" as="geometry"/></mxCell><mxCell id="3" value="Go Workspace Directory" style="text;html=1;strokeColor=none;fillColor=none;align=right;verticalAlign=middle;whiteSpace=wrap;rounded=0;shadow=0;labelBackgroundColor=none;fontSize=22;fontColor=#000000;" parent="1" vertex="1"><mxGeometry x="210" y="290" width="170" height="80" as="geometry"/></mxCell><mxCell id="4" style="edgeStyle=orthogonalEdgeStyle;rounded=0;html=1;exitX=1;exitY=0.5;startArrow=none;startFill=0;endArrow=classic;endFill=1;jettySize=auto;orthogonalLoop=1;strokeColor=#000000;strokeWidth=3;fontSize=22;fontColor=#000000;" parent="1" source="5" edge="1"><mxGeometry relative="1" as="geometry"><mxPoint x="610" y="230" as="targetPoint"/></mxGeometry></mxCell><mxCell id="5" value="bin" style="rounded=0;whiteSpace=wrap;html=1;shadow=0;labelBackgroundColor=none;strokeColor=#080808;strokeWidth=2;fillColor=#ffffff;fontSize=22;fontColor=#000000;align=center;" parent="1" vertex="1"><mxGeometry x="420" y="200" width="120" height="60" as="geometry"/></mxCell><mxCell id="6" value="pkg" style="rounded=0;whiteSpace=wrap;html=1;shadow=0;labelBackgroundColor=none;strokeColor=#080808;strokeWidth=2;fillColor=#ffffff;fontSize=22;fontColor=#000000;align=center;" parent="1" vertex="1"><mxGeometry x="420" y="300" width="120" height="60" as="geometry"/></mxCell><mxCell id="7" value="src" style="rounded=0;whiteSpace=wrap;html=1;shadow=0;labelBackgroundColor=none;strokeColor=#080808;strokeWidth=2;fillColor=#ffffff;fontSize=22;fontColor=#000000;align=center;" parent="1" vertex="1"><mxGeometry x="420" y="395" width="120" height="60" as="geometry"/></mxCell><mxCell id="8" value="Created automatically. Compiled executable files. Compiled 'executable' packages go here" style="text;html=1;strokeColor=none;fillColor=none;align=left;verticalAlign=middle;whiteSpace=wrap;rounded=0;shadow=0;labelBackgroundColor=none;fontSize=16;fontColor=#000000;fontStyle=2" parent="1" vertex="1"><mxGeometry x="610" y="190" width="280" height="80" as="geometry"/></mxCell><mxCell id="9" style="edgeStyle=orthogonalEdgeStyle;rounded=0;html=1;exitX=1;exitY=0.5;startArrow=none;startFill=0;endArrow=classic;endFill=1;jettySize=auto;orthogonalLoop=1;strokeColor=#000000;strokeWidth=3;fontSize=22;fontColor=#000000;" parent="1" edge="1"><mxGeometry relative="1" as="geometry"><mxPoint x="610" y="325" as="targetPoint"/><mxPoint x="540" y="325" as="sourcePoint"/></mxGeometry></mxCell><mxCell id="10" value="&lt;div&gt;Created automatically.&amp;nbsp;&lt;br&gt;&lt;/div&gt;Compiled 'dependency' packages go here" style="text;html=1;strokeColor=none;fillColor=none;align=left;verticalAlign=middle;whiteSpace=wrap;rounded=0;shadow=0;labelBackgroundColor=none;fontSize=16;fontColor=#000000;fontStyle=2" parent="1" vertex="1"><mxGeometry x="610" y="285" width="230" height="80" as="geometry"/></mxCell><mxCell id="11" style="edgeStyle=orthogonalEdgeStyle;rounded=0;html=1;exitX=1;exitY=0.5;startArrow=none;startFill=0;endArrow=classic;endFill=1;jettySize=auto;orthogonalLoop=1;strokeColor=#000000;strokeWidth=3;fontSize=22;fontColor=#000000;" parent="1" edge="1"><mxGeometry relative="1" as="geometry"><mxPoint x="610" y="425" as="targetPoint"/><mxPoint x="540" y="425" as="sourcePoint"/></mxGeometry></mxCell><mxCell id="12" value="Raw source code that we write or ***&lt;b&gt;install***&lt;/b&gt;" style="text;html=1;strokeColor=none;fillColor=none;align=left;verticalAlign=middle;whiteSpace=wrap;rounded=0;shadow=0;labelBackgroundColor=none;fontSize=16;fontColor=#000000;fontStyle=2" parent="1" vertex="1"><mxGeometry x="610" y="385" width="250" height="80" as="geometry"/></mxCell></root></mxGraphModel></diagram><diagram id="e0d3f1eb-597a-f011-8c1a-7b8f0dff4c7a" name="003 - osx gopath"><mxGraphModel dx="900" dy="727" grid="1" gridSize="10" guides="1" tooltips="1" connect="1" arrows="1" fold="1" page="1" pageScale="1" pageWidth="1100" pageHeight="850" background="#ffffff" math="0" shadow="0"><root><mxCell id="0"/><mxCell id="1" parent="0"/><mxCell id="2" value="~" style="rounded=0;whiteSpace=wrap;html=1;shadow=0;labelBackgroundColor=none;strokeColor=#080808;strokeWidth=2;fillColor=#ffffff;fontSize=42;fontColor=#000000;align=center;" parent="1" vertex="1"><mxGeometry x="320" y="110" width="120" height="60" as="geometry"/></mxCell><mxCell id="3" value="/" style="rounded=0;whiteSpace=wrap;html=1;shadow=0;labelBackgroundColor=none;strokeColor=#080808;strokeWidth=2;fillColor=#ffffff;fontSize=42;fontColor=#000000;align=center;" parent="1" vertex="1"><mxGeometry x="440" y="110" width="120" height="60" as="geometry"/></mxCell><mxCell id="4" value="go" style="rounded=0;whiteSpace=wrap;html=1;shadow=0;labelBackgroundColor=none;strokeColor=#080808;strokeWidth=2;fillColor=#ffffff;fontSize=42;fontColor=#000000;align=center;" parent="1" vertex="1"><mxGeometry x="560" y="110" width="120" height="60" as="geometry"/></mxCell><mxCell id="5" value="Tilde character. Shortcut to 'home' directory" style="text;html=1;strokeColor=none;fillColor=none;align=center;verticalAlign=middle;whiteSpace=wrap;rounded=0;shadow=0;labelBackgroundColor=none;fontSize=22;fontColor=#000000;" parent="1" vertex="1"><mxGeometry x="290" y="180" width="180" height="80" as="geometry"/></mxCell><mxCell id="6" value="On OSX, 'home' directory is usually '/Users/&amp;lt;username&amp;gt;'" style="text;html=1;strokeColor=none;fillColor=none;align=center;verticalAlign=middle;whiteSpace=wrap;rounded=0;shadow=0;labelBackgroundColor=none;fontSize=22;fontColor=#000000;fontStyle=2" parent="1" vertex="1"><mxGeometry x="330" y="300" width="330" height="80" as="geometry"/></mxCell></root></mxGraphModel></diagram><diagram id="cf2ae626-d158-5503-dd6c-eddec5f960ac" name="004 - src folder"><mxGraphModel dx="1030" dy="509" grid="1" gridSize="10" guides="1" tooltips="1" connect="1" arrows="1" fold="1" page="1" pageScale="1" pageWidth="1100" pageHeight="850" background="#ffffff" math="0" shadow="0"><root><mxCell id="0"/><mxCell id="1" parent="0"/><mxCell id="2" value="src" style="rounded=0;whiteSpace=wrap;html=1;shadow=0;labelBackgroundColor=none;strokeColor=#080808;strokeWidth=2;fillColor=#ffffff;fontSize=32;fontColor=#000000;align=center;" parent="1" vertex="1"><mxGeometry x="140" y="220" width="120" height="530" as="geometry"/></mxCell><mxCell id="3" value="github.com" style="rounded=0;whiteSpace=wrap;html=1;shadow=0;labelBackgroundColor=none;strokeColor=#080808;strokeWidth=2;fillColor=#ffffff;fontSize=32;fontColor=#000000;align=center;" parent="1" vertex="1"><mxGeometry x="260" y="220" width="220" height="350" as="geometry"/></mxCell><mxCell id="4" value="bitbucket.com" style="rounded=0;whiteSpace=wrap;html=1;shadow=0;labelBackgroundColor=none;strokeColor=#080808;strokeWidth=2;fillColor=#ffffff;fontSize=32;fontColor=#000000;align=center;" parent="1" vertex="1"><mxGeometry x="260" y="570" width="220" height="180" as="geometry"/></mxCell><mxCell id="5" value="stephengrider" style="rounded=0;whiteSpace=wrap;html=1;shadow=0;labelBackgroundColor=none;strokeColor=#080808;strokeWidth=2;fillColor=#ffffff;fontSize=32;fontColor=#000000;align=center;" parent="1" vertex="1"><mxGeometry x="480" y="220" width="250" height="170" as="geometry"/></mxCell><mxCell id="6" value="tim82" style="rounded=0;whiteSpace=wrap;html=1;shadow=0;labelBackgroundColor=none;strokeColor=#080808;strokeWidth=2;fillColor=#ffffff;fontSize=32;fontColor=#000000;align=center;" parent="1" vertex="1"><mxGeometry x="480" y="390" width="250" height="90" as="geometry"/></mxCell><mxCell id="7" value="otherGithubUser" style="rounded=0;whiteSpace=wrap;html=1;shadow=0;labelBackgroundColor=none;strokeColor=#080808;strokeWidth=2;fillColor=#ffffff;fontSize=32;fontColor=#000000;align=center;" parent="1" vertex="1"><mxGeometry x="480" y="480" width="250" height="90" as="geometry"/></mxCell><mxCell id="8" value="parsemystring" style="rounded=0;whiteSpace=wrap;html=1;shadow=0;labelBackgroundColor=none;strokeColor=#080808;strokeWidth=2;fillColor=#ffffff;fontSize=32;fontColor=#000000;align=center;" parent="1" vertex="1"><mxGeometry x="730" y="435" width="230" height="45" as="geometry"/></mxCell><mxCell id="9" value="pet_project" style="rounded=0;whiteSpace=wrap;html=1;shadow=0;labelBackgroundColor=none;strokeColor=#080808;strokeWidth=2;fillColor=#ffffff;fontSize=32;fontColor=#000000;align=center;" parent="1" vertex="1"><mxGeometry x="730" y="390" width="230" height="45" as="geometry"/></mxCell><mxCell id="10" value="other_project" style="rounded=0;whiteSpace=wrap;html=1;shadow=0;labelBackgroundColor=none;strokeColor=#080808;strokeWidth=2;fillColor=#ffffff;fontSize=32;fontColor=#000000;align=center;" parent="1" vertex="1"><mxGeometry x="730" y="525" width="230" height="45" as="geometry"/></mxCell><mxCell id="11" value="math_lib" style="rounded=0;whiteSpace=wrap;html=1;shadow=0;labelBackgroundColor=none;strokeColor=#080808;strokeWidth=2;fillColor=#ffffff;fontSize=32;fontColor=#000000;align=center;" parent="1" vertex="1"><mxGeometry x="730" y="480" width="230" height="45" as="geometry"/></mxCell><mxCell id="12" value="alexban" style="rounded=0;whiteSpace=wrap;html=1;shadow=0;labelBackgroundColor=none;strokeColor=#080808;strokeWidth=2;fillColor=#ffffff;fontSize=32;fontColor=#000000;align=center;" parent="1" vertex="1"><mxGeometry x="480" y="570" width="250" height="90" as="geometry"/></mxCell><mxCell id="13" value="paintlib" style="rounded=0;whiteSpace=wrap;html=1;shadow=0;labelBackgroundColor=none;strokeColor=#080808;strokeWidth=2;fillColor=#ffffff;fontSize=32;fontColor=#000000;align=center;" parent="1" vertex="1"><mxGeometry x="730" y="570" width="230" height="45" as="geometry"/></mxCell><mxCell id="14" value="myproject1" style="rounded=0;whiteSpace=wrap;html=1;shadow=0;labelBackgroundColor=none;strokeColor=#080808;strokeWidth=2;fillColor=#ffffff;fontSize=32;fontColor=#000000;align=center;" parent="1" vertex="1"><mxGeometry x="730" y="220" width="230" height="45" as="geometry"/></mxCell><mxCell id="15" value="myproject2" style="rounded=0;whiteSpace=wrap;html=1;shadow=0;labelBackgroundColor=none;strokeColor=#080808;strokeWidth=2;fillColor=#ffffff;fontSize=32;fontColor=#000000;align=center;" parent="1" vertex="1"><mxGeometry x="730" y="265" width="230" height="45" as="geometry"/></mxCell><mxCell id="16" value="root folder" style="text;html=1;strokeColor=none;fillColor=none;align=center;verticalAlign=middle;whiteSpace=wrap;rounded=0;shadow=0;labelBackgroundColor=none;fontSize=32;fontColor=#000000;" parent="1" vertex="1"><mxGeometry x="165" y="160" width="70" height="40" as="geometry"/></mxCell><mxCell id="17" value="provider folder" style="text;html=1;strokeColor=none;fillColor=none;align=center;verticalAlign=middle;whiteSpace=wrap;rounded=0;shadow=0;labelBackgroundColor=none;fontSize=32;fontColor=#000000;" parent="1" vertex="1"><mxGeometry x="335" y="160" width="70" height="40" as="geometry"/></mxCell><mxCell id="18" value="username on that service" style="text;html=1;strokeColor=none;fillColor=none;align=center;verticalAlign=middle;whiteSpace=wrap;rounded=0;shadow=0;labelBackgroundColor=none;fontSize=32;fontColor=#000000;" parent="1" vertex="1"><mxGeometry x="505" y="160" width="200" height="40" as="geometry"/></mxCell><mxCell id="19" value="package name" style="text;html=1;strokeColor=none;fillColor=none;align=center;verticalAlign=middle;whiteSpace=wrap;rounded=0;shadow=0;labelBackgroundColor=none;fontSize=32;fontColor=#000000;" parent="1" vertex="1"><mxGeometry x="745" y="160" width="200" height="40" as="geometry"/></mxCell></root></mxGraphModel></diagram><diagram id="e6b4782c-70b7-8ed8-7c85-af7c12f20c14" name="005 - src structure"><mxGraphModel dx="1030" dy="509" grid="1" gridSize="10" guides="1" tooltips="1" connect="1" arrows="1" fold="1" page="1" pageScale="1" pageWidth="1100" pageHeight="850" background="#ffffff" math="0" shadow="0"><root><mxCell id="0"/><mxCell id="1" parent="0"/><mxCell id="2" style="edgeStyle=orthogonalEdgeStyle;rounded=0;html=1;exitX=0.5;exitY=1;startArrow=none;startFill=0;endArrow=classic;endFill=1;jettySize=auto;orthogonalLoop=1;strokeColor=#000000;strokeWidth=3;fontSize=32;fontColor=#000000;" parent="1" source="3" edge="1"><mxGeometry relative="1" as="geometry"><mxPoint x="250" y="340" as="targetPoint"/></mxGeometry></mxCell><mxCell id="3" value="go" style="rounded=0;whiteSpace=wrap;html=1;shadow=0;labelBackgroundColor=none;strokeColor=#080808;strokeWidth=2;fillColor=#ffffff;fontSize=32;fontColor=#000000;align=center;" parent="1" vertex="1"><mxGeometry x="90" y="200" width="120" height="60" as="geometry"/></mxCell><mxCell id="4" style="edgeStyle=orthogonalEdgeStyle;rounded=0;html=1;exitX=0.5;exitY=1;startArrow=none;startFill=0;endArrow=classic;endFill=1;jettySize=auto;orthogonalLoop=1;strokeColor=#000000;strokeWidth=3;fontSize=32;fontColor=#000000;" parent="1" source="5" edge="1"><mxGeometry relative="1" as="geometry"><mxPoint x="310" y="340" as="targetPoint"/></mxGeometry></mxCell><mxCell id="5" value="src" style="rounded=0;whiteSpace=wrap;html=1;shadow=0;labelBackgroundColor=none;strokeColor=#080808;strokeWidth=2;fillColor=#ffffff;fontSize=32;fontColor=#000000;align=center;" parent="1" vertex="1"><mxGeometry x="210" y="200" width="120" height="60" as="geometry"/></mxCell><mxCell id="6" style="edgeStyle=orthogonalEdgeStyle;rounded=0;html=1;exitX=0.5;exitY=1;startArrow=none;startFill=0;endArrow=classic;endFill=1;jettySize=auto;orthogonalLoop=1;strokeColor=#000000;strokeWidth=3;fontSize=32;fontColor=#000000;" parent="1" source="7" edge="1"><mxGeometry relative="1" as="geometry"><mxPoint x="420" y="340" as="targetPoint"/></mxGeometry></mxCell><mxCell id="7" value="&amp;lt;provider&amp;gt;" style="rounded=0;whiteSpace=wrap;html=1;shadow=0;labelBackgroundColor=none;strokeColor=#080808;strokeWidth=2;fillColor=#ffffff;fontSize=32;fontColor=#000000;align=center;" parent="1" vertex="1"><mxGeometry x="330" y="200" width="180" height="60" as="geometry"/></mxCell><mxCell id="8" style="edgeStyle=orthogonalEdgeStyle;rounded=0;html=1;exitX=0.5;exitY=1;startArrow=none;startFill=0;endArrow=classic;endFill=1;jettySize=auto;orthogonalLoop=1;strokeColor=#000000;strokeWidth=3;fontSize=32;fontColor=#000000;" parent="1" source="9" edge="1"><mxGeometry relative="1" as="geometry"><mxPoint x="560" y="340" as="targetPoint"/></mxGeometry></mxCell><mxCell id="9" value="&amp;lt;username&amp;gt;" style="rounded=0;whiteSpace=wrap;html=1;shadow=0;labelBackgroundColor=none;strokeColor=#080808;strokeWidth=2;fillColor=#ffffff;fontSize=32;fontColor=#000000;align=center;" parent="1" vertex="1"><mxGeometry x="510" y="200" width="190" height="60" as="geometry"/></mxCell><mxCell id="10" style="edgeStyle=orthogonalEdgeStyle;rounded=0;html=1;exitX=0.5;exitY=1;startArrow=none;startFill=0;endArrow=classic;endFill=1;jettySize=auto;orthogonalLoop=1;strokeColor=#000000;strokeWidth=3;fontSize=32;fontColor=#000000;" parent="1" source="11" target="12" edge="1"><mxGeometry relative="1" as="geometry"><mxPoint x="660" y="330" as="targetPoint"/><Array as="points"><mxPoint x="840" y="300"/><mxPoint x="660" y="300"/></Array></mxGeometry></mxCell><mxCell id="11" value="&amp;lt;package name&amp;gt;" style="rounded=0;whiteSpace=wrap;html=1;shadow=0;labelBackgroundColor=none;strokeColor=#080808;strokeWidth=2;fillColor=#ffffff;fontSize=32;fontColor=#000000;align=center;" parent="1" vertex="1"><mxGeometry x="700" y="200" width="280" height="60" as="geometry"/></mxCell><mxCell id="12" value="/go/src/github.com/astaxie/beego" style="text;html=1;strokeColor=none;fillColor=none;align=center;verticalAlign=middle;whiteSpace=wrap;rounded=0;shadow=0;labelBackgroundColor=none;fontSize=32;fontColor=#000000;" parent="1" vertex="1"><mxGeometry x="150" y="350" width="630" height="20" as="geometry"/></mxCell></root></mxGraphModel></diagram><diagram id="5e955d71-f342-d6b8-284a-2bd92bf3c119" name="006 - example"><mxGraphModel dx="1030" dy="509" grid="1" gridSize="10" guides="1" tooltips="1" connect="1" arrows="1" fold="1" page="1" pageScale="1" pageWidth="1100" pageHeight="850" background="#ffffff" math="0" shadow="0"><root><mxCell id="0"/><mxCell id="1" parent="0"/><mxCell id="2" value="github.com" style="rounded=0;whiteSpace=wrap;html=1;shadow=0;labelBackgroundColor=none;strokeColor=#080808;strokeWidth=2;fillColor=#ffffff;fontSize=22;fontColor=#000000;align=center;" parent="1" vertex="1"><mxGeometry x="590" y="260" width="150" height="60" as="geometry"/></mxCell><mxCell id="3" value="Where in 'src' folder would I put a package called 'helloworld'? The package currently hosted at github.com" style="text;html=1;strokeColor=none;fillColor=none;align=center;verticalAlign=middle;whiteSpace=wrap;rounded=0;shadow=0;labelBackgroundColor=none;fontSize=32;fontColor=#000000;fontStyle=1" parent="1" vertex="1"><mxGeometry x="243" y="110" width="615" height="130" as="geometry"/></mxCell><mxCell id="4" value="Provider, or host of my package, is" style="text;html=1;strokeColor=none;fillColor=none;align=center;verticalAlign=middle;whiteSpace=wrap;rounded=0;shadow=0;labelBackgroundColor=none;fontSize=22;fontColor=#000000;" parent="1" vertex="1"><mxGeometry x="355" y="265" width="215" height="50" as="geometry"/></mxCell><mxCell id="5" value="stephengrider" style="rounded=0;whiteSpace=wrap;html=1;shadow=0;labelBackgroundColor=none;strokeColor=#080808;strokeWidth=2;fillColor=#ffffff;fontSize=22;fontColor=#000000;align=center;" parent="1" vertex="1"><mxGeometry x="590" y="350" width="150" height="60" as="geometry"/></mxCell><mxCell id="6" value="My username on github.com is" style="text;html=1;strokeColor=none;fillColor=none;align=center;verticalAlign=middle;whiteSpace=wrap;rounded=0;shadow=0;labelBackgroundColor=none;fontSize=22;fontColor=#000000;" parent="1" vertex="1"><mxGeometry x="355" y="355" width="215" height="50" as="geometry"/></mxCell><mxCell id="7" value="helloworld" style="rounded=0;whiteSpace=wrap;html=1;shadow=0;labelBackgroundColor=none;strokeColor=#080808;strokeWidth=2;fillColor=#ffffff;fontSize=22;fontColor=#000000;align=center;" parent="1" vertex="1"><mxGeometry x="590" y="440" width="150" height="60" as="geometry"/></mxCell><mxCell id="8" value="My package name is" style="text;html=1;strokeColor=none;fillColor=none;align=center;verticalAlign=middle;whiteSpace=wrap;rounded=0;shadow=0;labelBackgroundColor=none;fontSize=22;fontColor=#000000;" parent="1" vertex="1"><mxGeometry x="355" y="445" width="215" height="50" as="geometry"/></mxCell></root></mxGraphModel></diagram><diagram id="1e45d81b-0806-1dd8-842f-d9ed409d1c0e" name="007 - structure"><mxGraphModel dx="1101" dy="509" grid="1" gridSize="10" guides="1" tooltips="1" connect="1" arrows="1" fold="1" page="1" pageScale="1" pageWidth="1100" pageHeight="850" background="#ffffff" math="0" shadow="0"><root><mxCell id="0"/><mxCell id="1" parent="0"/><mxCell id="2" value="goworkspace" style="rounded=0;whiteSpace=wrap;html=1;shadow=0;labelBackgroundColor=none;strokeColor=#080808;strokeWidth=2;fillColor=#ffffff;fontSize=32;fontColor=#000000;align=center;" parent="1" vertex="1"><mxGeometry x="60" y="125" width="210" height="60" as="geometry"/></mxCell><mxCell id="3" value="src" style="rounded=0;whiteSpace=wrap;html=1;shadow=0;labelBackgroundColor=none;strokeColor=#080808;strokeWidth=2;fillColor=#ffffff;fontSize=32;fontColor=#000000;align=center;" parent="1" vertex="1"><mxGeometry x="105" y="185" width="165" height="60" as="geometry"/></mxCell><mxCell id="4" style="edgeStyle=orthogonalEdgeStyle;rounded=0;html=1;exitX=1;exitY=0.5;entryX=0;entryY=0.5;startArrow=none;startFill=0;endArrow=classic;endFill=1;jettySize=auto;orthogonalLoop=1;strokeColor=#000000;strokeWidth=3;fontSize=22;fontColor=#000000;" parent="1" source="5" target="12" edge="1"><mxGeometry relative="1" as="geometry"/></mxCell><mxCell id="5" value="&amp;lt;provider&amp;gt;" style="rounded=0;whiteSpace=wrap;html=1;shadow=0;labelBackgroundColor=none;strokeColor=#080808;strokeWidth=2;fillColor=#ffffff;fontSize=32;fontColor=#000000;align=center;" parent="1" vertex="1"><mxGeometry x="140" y="245" width="180" height="60" as="geometry"/></mxCell><mxCell id="6" style="edgeStyle=orthogonalEdgeStyle;rounded=0;html=1;exitX=1;exitY=0.5;startArrow=none;startFill=0;endArrow=classic;endFill=1;jettySize=auto;orthogonalLoop=1;strokeColor=#000000;strokeWidth=3;fontSize=22;fontColor=#000000;" parent="1" source="7" target="13" edge="1"><mxGeometry relative="1" as="geometry"/></mxCell><mxCell id="7" value="&amp;lt;username&amp;gt;" style="rounded=0;whiteSpace=wrap;html=1;shadow=0;labelBackgroundColor=none;strokeColor=#080808;strokeWidth=2;fillColor=#ffffff;fontSize=32;fontColor=#000000;align=center;" parent="1" vertex="1"><mxGeometry x="175" y="305" width="190" height="60" as="geometry"/></mxCell><mxCell id="8" style="edgeStyle=orthogonalEdgeStyle;rounded=0;html=1;exitX=1;exitY=0.5;startArrow=none;startFill=0;endArrow=classic;endFill=1;jettySize=auto;orthogonalLoop=1;strokeColor=#000000;strokeWidth=3;fontSize=22;fontColor=#000000;" parent="1" source="9" target="14" edge="1"><mxGeometry relative="1" as="geometry"/></mxCell><mxCell id="9" value="&amp;lt;package name&amp;gt;" style="rounded=0;whiteSpace=wrap;html=1;shadow=0;labelBackgroundColor=none;strokeColor=#080808;strokeWidth=2;fillColor=#ffffff;fontSize=32;fontColor=#000000;align=center;" parent="1" vertex="1"><mxGeometry x="210" y="365" width="280" height="60" as="geometry"/></mxCell><mxCell id="10" value="goworkspace" style="rounded=0;whiteSpace=wrap;html=1;shadow=0;labelBackgroundColor=none;strokeColor=#080808;strokeWidth=2;fillColor=#ffffff;fontSize=32;fontColor=#000000;align=center;" parent="1" vertex="1"><mxGeometry x="630" y="125" width="210" height="60" as="geometry"/></mxCell><mxCell id="11" value="src" style="rounded=0;whiteSpace=wrap;html=1;shadow=0;labelBackgroundColor=none;strokeColor=#080808;strokeWidth=2;fillColor=#ffffff;fontSize=32;fontColor=#000000;align=center;" parent="1" vertex="1"><mxGeometry x="675" y="185" width="165" height="60" as="geometry"/></mxCell><mxCell id="12" value="github.com" style="rounded=0;whiteSpace=wrap;html=1;shadow=0;labelBackgroundColor=none;strokeColor=#080808;strokeWidth=2;fillColor=#ffffff;fontSize=32;fontColor=#000000;align=center;" parent="1" vertex="1"><mxGeometry x="710" y="245" width="180" height="60" as="geometry"/></mxCell><mxCell id="13" value="stephengrider" style="rounded=0;whiteSpace=wrap;html=1;shadow=0;labelBackgroundColor=none;strokeColor=#080808;strokeWidth=2;fillColor=#ffffff;fontSize=32;fontColor=#000000;align=center;" parent="1" vertex="1"><mxGeometry x="745" y="305" width="205" height="60" as="geometry"/></mxCell><mxCell id="14" value="helloworld" style="rounded=0;whiteSpace=wrap;html=1;shadow=0;labelBackgroundColor=none;strokeColor=#080808;strokeWidth=2;fillColor=#ffffff;fontSize=32;fontColor=#000000;align=center;" parent="1" vertex="1"><mxGeometry x="780" y="365" width="280" height="60" as="geometry"/></mxCell></root></mxGraphModel></diagram><diagram id="e5e59ee0-9267-b19b-ca7d-11afa16963dd" name="008 - cards"><mxGraphModel dx="1101" dy="509" grid="1" gridSize="10" guides="1" tooltips="1" connect="1" arrows="1" fold="1" page="1" pageScale="1" pageWidth="1100" pageHeight="850" background="#ffffff" math="0" shadow="0"><root><mxCell id="0"/><mxCell id="1" parent="0"/></root></mxGraphModel></diagram></mxfile>